<svg xmlns="http://www.w3.org/2000/svg" xmlns:xlink="http://www.w3.org/1999/xlink" width="500" zoomAndPan="magnify" viewBox="0 0 375 374.999991" height="500" preserveAspectRatio="xMidYMid meet" version="1.0"><defs><g/><clipPath id="98676a4aaf"><path d="M 122.335938 120 L 205 120 L 205 257.75 L 122.335938 257.75 Z M 122.335938 120 " clip-rule="nonzero"/></clipPath><clipPath id="e6c2e8e4c4"><path d="M 181 124 L 213.835938 124 L 213.835938 179 L 181 179 Z M 181 124 " clip-rule="nonzero"/></clipPath><clipPath id="e4880ff88c"><path d="M 127 107.75 L 149 107.75 L 149 145 L 127 145 Z M 127 107.75 " clip-rule="nonzero"/></clipPath><clipPath id="01fbacaf11"><path d="M 250 176.3125 L 262.5 176.3125 L 262.5 189 L 250 189 Z M 250 176.3125 " clip-rule="nonzero"/></clipPath><clipPath id="96fc9dd5eb"><path d="M 112.5 182 L 125 182 L 125 195.0625 L 112.5 195.0625 Z M 112.5 182 " clip-rule="nonzero"/></clipPath></defs><g fill="#000000" fill-opacity="1"><g transform="translate(123.258746, 199.635899)"><g><path d="M 85.296875 -6.1875 C 85.296875 -0.125 84.320312 5.390625 82.375 10.359375 C 80.4375 15.335938 77.679688 19.582031 74.109375 23.09375 C 70.535156 26.613281 66.257812 29.34375 61.28125 31.28125 C 56.3125 33.21875 50.796875 34.1875 44.734375 34.1875 C 39.273438 34.1875 34.0625 33.335938 29.09375 31.640625 C 24.125 29.941406 19.757812 27.484375 16 24.265625 C 12.238281 21.054688 9.238281 17.148438 7 12.546875 C 4.757812 7.941406 3.640625 2.726562 3.640625 -3.09375 C 3.640625 -8.664062 4.609375 -13.453125 6.546875 -17.453125 C 8.484375 -21.453125 11.117188 -24.753906 14.453125 -27.359375 C 17.785156 -29.972656 21.695312 -31.914062 26.1875 -33.1875 C 30.675781 -34.457031 35.460938 -35.09375 40.546875 -35.09375 L 40.546875 -34.375 C 36.179688 -34.125 32.148438 -33.0625 28.453125 -31.1875 C 24.765625 -29.3125 21.613281 -26.859375 19 -23.828125 C 16.394531 -20.796875 14.363281 -17.335938 12.90625 -13.453125 C 11.457031 -9.578125 10.734375 -5.457031 10.734375 -1.09375 C 10.734375 3.875 11.550781 8.390625 13.1875 12.453125 C 14.820312 16.515625 17.09375 20 20 22.90625 C 22.914062 25.820312 26.429688 28.066406 30.546875 29.640625 C 34.671875 31.210938 39.21875 32 44.1875 32 C 54.007812 32 61.675781 29.117188 67.1875 23.359375 C 72.707031 17.609375 75.46875 9.820312 75.46875 0 C 75.46875 -5.207031 74.285156 -9.960938 71.921875 -14.265625 C 69.554688 -18.578125 66.585938 -22.640625 63.015625 -26.453125 C 59.441406 -30.273438 55.5625 -33.941406 51.375 -37.453125 C 47.1875 -40.972656 43.304688 -44.488281 39.734375 -48 C 36.160156 -51.519531 33.191406 -55.160156 30.828125 -58.921875 C 28.460938 -62.679688 27.28125 -66.742188 27.28125 -71.109375 C 27.28125 -74.253906 27.851562 -77.097656 29 -79.640625 C 30.15625 -82.191406 31.734375 -84.316406 33.734375 -86.015625 C 35.734375 -87.710938 38.066406 -89.015625 40.734375 -89.921875 C 43.398438 -90.835938 46.25 -91.296875 49.28125 -91.296875 C 50.5 -91.296875 51.679688 -91.171875 52.828125 -90.921875 C 53.984375 -90.679688 55.101562 -90.441406 56.1875 -90.203125 L 60.734375 -88.75 C 63.160156 -88.019531 65.46875 -87.65625 67.65625 -87.65625 C 69.351562 -87.65625 70.6875 -88.320312 71.65625 -89.65625 L 70.375 -68.5625 C 69.894531 -70.988281 69.046875 -73.472656 67.828125 -76.015625 C 66.617188 -78.566406 65.070312 -80.867188 63.1875 -82.921875 C 61.3125 -84.984375 59.191406 -86.710938 56.828125 -88.109375 C 54.460938 -89.503906 51.890625 -90.203125 49.109375 -90.203125 C 44.617188 -90.203125 40.765625 -88.988281 37.546875 -86.5625 C 34.335938 -84.132812 32.734375 -80.5 32.734375 -75.65625 C 32.734375 -71.894531 34.035156 -68.285156 36.640625 -64.828125 C 39.242188 -61.378906 42.484375 -57.984375 46.359375 -54.640625 C 50.242188 -51.304688 54.457031 -47.910156 59 -44.453125 C 63.550781 -41.003906 67.765625 -37.335938 71.640625 -33.453125 C 75.523438 -29.578125 78.769531 -25.394531 81.375 -20.90625 C 83.988281 -16.425781 85.296875 -11.519531 85.296875 -6.1875 Z M 85.296875 -6.1875 "/></g></g></g><g fill="#000000" fill-opacity="1"><g transform="translate(175.7478, 210.498459)"><g><path d="M 50.609375 -15.578125 C 51.796875 -13.515625 52.921875 -11.597656 53.984375 -9.828125 C 55.054688 -8.066406 56.03125 -6.519531 56.90625 -5.1875 C 57.789062 -3.863281 58.546875 -2.832031 59.171875 -2.09375 C 59.804688 -1.363281 60.34375 -1 60.78125 -1 L 60.78125 0 L 47.859375 0 L 47.859375 -1 C 48.296875 -1 48.109375 -2.140625 47.296875 -4.421875 C 46.484375 -6.703125 45.046875 -9.613281 42.984375 -13.15625 L 26.1875 -42.21875 L 13.703125 -42.21875 L 13.703125 -9.5 C 13.703125 -7.738281 13.789062 -6.285156 13.96875 -5.140625 C 14.15625 -3.992188 14.394531 -3.125 14.6875 -2.53125 C 14.988281 -1.945312 15.285156 -1.546875 15.578125 -1.328125 C 15.878906 -1.109375 16.101562 -1 16.25 -1 L 16.25 0 L 3.3125 0 L 3.3125 -1 C 3.457031 -1 3.675781 -1.109375 3.96875 -1.328125 C 4.269531 -1.546875 4.546875 -1.945312 4.796875 -2.53125 C 5.054688 -3.125 5.296875 -3.992188 5.515625 -5.140625 C 5.742188 -6.285156 5.859375 -7.738281 5.859375 -9.5 L 5.859375 -68.078125 C 5.859375 -69.921875 5.742188 -71.394531 5.515625 -72.5 C 5.296875 -73.601562 5.054688 -74.445312 4.796875 -75.03125 C 4.546875 -75.625 4.269531 -76.03125 3.96875 -76.25 C 3.675781 -76.476562 3.457031 -76.59375 3.3125 -76.59375 L 3.3125 -77.578125 L 4.3125 -77.578125 C 7.625 -77.648438 11.046875 -77.867188 14.578125 -78.234375 C 18.117188 -78.609375 21.507812 -78.796875 24.75 -78.796875 C 30.351562 -78.796875 35.066406 -78.332031 38.890625 -77.40625 C 42.722656 -76.488281 45.816406 -75.21875 48.171875 -73.59375 C 50.535156 -71.976562 52.234375 -70.046875 53.265625 -67.796875 C 54.296875 -65.554688 54.8125 -63.109375 54.8125 -60.453125 C 54.8125 -58.242188 54.460938 -56.179688 53.765625 -54.265625 C 53.066406 -52.347656 51.925781 -50.613281 50.34375 -49.0625 C 48.757812 -47.519531 46.695312 -46.210938 44.15625 -45.140625 C 41.613281 -44.078125 38.535156 -43.285156 34.921875 -42.765625 Z M 13.703125 -77.25 L 13.703125 -43.09375 L 24.75 -43.09375 C 27.1875 -43.09375 29.710938 -43.347656 32.328125 -43.859375 C 34.941406 -44.378906 37.332031 -45.300781 39.5 -46.625 C 41.675781 -47.957031 43.484375 -49.75 44.921875 -52 C 46.359375 -54.25 47.078125 -57.066406 47.078125 -60.453125 C 47.078125 -63.835938 46.359375 -66.65625 44.921875 -68.90625 C 43.484375 -71.15625 41.675781 -72.941406 39.5 -74.265625 C 37.332031 -75.585938 34.941406 -76.523438 32.328125 -77.078125 C 29.710938 -77.628906 27.1875 -77.90625 24.75 -77.90625 C 23.0625 -77.90625 21.273438 -77.832031 19.390625 -77.6875 C 17.515625 -77.539062 15.617188 -77.394531 13.703125 -77.25 Z M 13.703125 -77.25 "/></g></g></g><g clip-path="url(#98676a4aaf)"><path fill="#2b2828" d="M 204.078125 188.148438 C 164.679688 189.847656 164.015625 191.550781 163.199219 257.734375 C 162.375 191.527344 161.714844 189.820312 122.316406 188.148438 C 161.714844 188.179688 162.375 186.542969 163.199219 120.328125 C 164.015625 186.542969 164.679688 188.179688 204.078125 188.148438 Z M 204.078125 188.148438 " fill-opacity="1" fill-rule="nonzero"/></g><g clip-path="url(#e6c2e8e4c4)"><path fill="#2b2828" d="M 213.460938 151.21875 C 197.886719 151.882812 197.617188 152.558594 197.296875 178.738281 C 196.972656 152.558594 196.730469 151.882812 181.128906 151.21875 C 196.710938 151.21875 196.972656 150.585938 197.296875 124.398438 C 197.617188 150.566406 197.886719 151.230469 213.460938 151.21875 Z M 213.460938 151.21875 " fill-opacity="1" fill-rule="nonzero"/></g><g clip-path="url(#e4880ff88c)"><path fill="#2b2828" d="M 148.988281 125.867188 C 138.464844 126.316406 138.289062 126.769531 138.066406 144.457031 C 137.851562 126.769531 137.671875 126.308594 127.152344 125.867188 C 137.671875 125.867188 137.851562 125.4375 138.066406 107.757812 C 138.273438 125.4375 138.464844 125.878906 148.988281 125.867188 Z M 148.988281 125.867188 " fill-opacity="1" fill-rule="nonzero"/></g><g clip-path="url(#01fbacaf11)"><path fill="#000000" d="M 250.003906 182.574219 C 253.910156 181.296875 254.9375 180.261719 256.203125 176.3125 C 257.46875 180.261719 258.496094 181.296875 262.402344 182.574219 C 258.496094 183.855469 257.46875 184.890625 256.203125 188.839844 C 254.9375 184.890625 253.910156 183.855469 250.003906 182.574219 Z M 250.003906 182.574219 " fill-opacity="1" fill-rule="nonzero"/></g><path fill="#000000" d="M 252.890625 182.949219 L 141.074219 182.949219 C 140.910156 182.949219 140.78125 182.816406 140.78125 182.652344 C 140.78125 182.488281 140.910156 182.355469 141.074219 182.355469 L 252.890625 182.355469 C 253.050781 182.355469 253.183594 182.488281 253.183594 182.652344 C 253.183594 182.816406 253.050781 182.949219 252.890625 182.949219 Z M 252.890625 182.949219 " fill-opacity="1" fill-rule="nonzero"/><g clip-path="url(#96fc9dd5eb)"><path fill="#000000" d="M 125 188.804688 C 121.09375 190.082031 120.066406 191.117188 118.800781 195.066406 C 117.535156 191.117188 116.507812 190.082031 112.601562 188.804688 C 116.507812 187.523438 117.535156 186.488281 118.800781 182.542969 C 120.066406 186.488281 121.09375 187.523438 125 188.804688 Z M 125 188.804688 " fill-opacity="1" fill-rule="nonzero"/></g><path fill="#000000" d="M 233.925781 189.023438 L 122.113281 189.023438 C 121.949219 189.023438 121.816406 188.890625 121.816406 188.726562 C 121.816406 188.5625 121.949219 188.429688 122.113281 188.429688 L 233.925781 188.429688 C 234.089844 188.429688 234.222656 188.5625 234.222656 188.726562 C 234.222656 188.890625 234.089844 189.023438 233.925781 189.023438 Z M 233.925781 189.023438 " fill-opacity="1" fill-rule="nonzero"/></svg>